<svg height="512" viewBox="0 0 128 128" width="512" xmlns="http://www.w3.org/2000/svg"><path d="m70.25 0h-12.5a52.805 52.805 0 0 0 -52.75 52.75v46a18.273 18.273 0 0 0 16.5 18.16v1.34a9.756 9.756 0 0 0 9.75 9.75h16.42a9.763 9.763 0 0 0 9.75-9.75v-43a9.763 9.763 0 0 0 -9.75-9.75h-16.42a9.756 9.756 0 0 0 -9.75 9.75v1.75h-4.75v-22.5h6.75a1.746 1.746 0 0 0 1.75-1.75 32.538 32.538 0 0 1 32.5-32.5h12.5a32.538 32.538 0 0 1 32.5 32.5 1.746 1.746 0 0 0 1.75 1.75h6.75v22.5h-4.75v-1.75a9.756 9.756 0 0 0 -9.75-9.75h-16.42a9.763 9.763 0 0 0 -9.75 9.75v43a9.763 9.763 0 0 0 9.75 9.75h16.42a9.756 9.756 0 0 0 9.75-9.75v-1.34a18.273 18.273 0 0 0 16.5-18.16v-46a52.805 52.805 0 0 0 -52.75-52.75zm-26 69h3.42a6.259 6.259 0 0 1 6.25 6.25v43a6.259 6.259 0 0 1 -6.25 6.25h-3.42zm-19.25 6.25a6.252 6.252 0 0 1 6.25-6.25h9.5v55.5h-9.5a6.252 6.252 0 0 1 -6.25-6.25zm58.75 49.25h-3.42a6.259 6.259 0 0 1 -6.25-6.25v-43a6.259 6.259 0 0 1 6.25-6.25h3.42zm19.25-6.25a6.252 6.252 0 0 1 -6.25 6.25h-9.5v-55.5h9.5a6.252 6.252 0 0 1 6.25 6.25zm-94.5-63.75h4.75v22.5h-4.75zm13 26v32.9a14.778 14.778 0 0 1 -13-14.65v-18.25zm84.71-29.5a36.053 36.053 0 0 0 -35.96-34.25h-12.5a36.053 36.053 0 0 0 -35.96 34.25h-13.26a49.307 49.307 0 0 1 49.22-47.5h12.5a49.307 49.307 0 0 1 49.22 47.5zm13.29 47.75a14.778 14.778 0 0 1 -13 14.65v-32.9h13zm0-21.75h-4.75v-22.5h4.75z"/></svg>