<svg height="512pt" viewBox="0 0 512 512.00301" width="512pt" xmlns="http://www.w3.org/2000/svg"><path d="m170.332031 487.152344c2.707031 0 5.253907-1.285156 6.863281-3.460938 1.609376-2.179687 2.089844-4.992187 1.292969-7.582031-16.160156-52.539063-25.386719-125.933594-25.292969-201.332031 0-4.714844-3.820312-8.535156-8.53125-8.535156-4.714843 0-8.535156 3.820312-8.535156 8.535156-.078125 78.1875 9.171875 151.492187 26.070313 206.394531 1.113281 3.554687 4.40625 5.976563 8.132812 5.980469zm0 0"/><path d="m336.816406 68.414062c-2.164062.671876-3.972656 2.171876-5.027344 4.175782-1.054687 2.003906-1.269531 4.34375-.597656 6.507812 17.503906 60.292969 26.5 122.734375 26.726563 185.515625.0625 4.667969 3.863281 8.421875 8.535156 8.421875h.078125c2.261719-.027344 4.425781-.953125 6.003906-2.574218 1.582032-1.621094 2.453125-3.804688 2.425782-6.070313-.25-64.421875-9.496094-128.496094-27.460938-190.363281-.671875-2.160156-2.175781-3.964844-4.179688-5.019532-2.003906-1.050781-4.34375-1.265624-6.503906-.59375zm0 0"/><path d="m188.875 13.597656c-10.4375 18.679688-18.765625 38.460938-24.839844 58.980469-1.414062 4.5 1.085938 9.292969 5.582032 10.707031 4.5 1.410156 9.292968-1.089844 10.707031-5.585937 5.691406-19.292969 13.5-37.894531 23.277343-55.46875 1.59375-2.632813 1.644532-5.921875.132813-8.601563-1.511719-2.683594-4.347656-4.34375-7.425781-4.34375-3.078125-.003906-5.917969 1.648438-7.433594 4.328125zm0 0"/><path d="m485.425781 440.757812c-.410156-1.15625-1.070312-2.210937-1.929687-3.089843-.746094-.71875-1.613282-1.296875-2.558594-1.707031l-12.996094-13.832032c-1.855468-1.894531-4.128906-3.324218-6.640625-4.171875l-21.171875-7.511719c-5.25-1.722656-11.007812-.765624-15.417968 2.5625l-85.335938-85.335937c1.007812-17.160156 1.546875-34.789063 1.570312-52.707031 0-.804688 0-1.589844 0-2.382813 0-.128906 0-.246093 0-.375.417969-63.613281-8.355468-126.953125-26.050781-188.058593-9.753906-31.417969-30.429687-84.14453175-59.296875-84.14453175-28.871094 0-49.332031 51.84765575-58.992187 82.77343775-8.304688 27.355468-14.484375 55.316406-18.484375 83.625l-25.648438-25.601563 6.773438-6.824219c3.332031-3.332031 3.332031-8.734374 0-12.066406l-34.210938-34.089844c-3.332031-3.328124-8.726562-3.328124-12.058594 0l-6.738281 6.738282-73.226562-73.222656 6.75-6.742188c3.34375-3.332031 3.351562-8.742188.019531-12.082031-3.332031-3.34375-8.742188-3.351563-12.085938-.019531l-25.597656 25.601562c-2.949218 3.386719-2.765625 8.480469.417969 11.648438 3.179687 3.167968 8.273437 3.328124 11.648437.367187l6.765626-6.734375 73.257812 73.292969-6.773438 6.828125c-3.332031 3.332031-3.332031 8.734375 0 12.066406l34.183594 34.132812c1.601563 1.570313 3.753906 2.445313 6 2.441407 2.261719-.003907 4.433594-.90625 6.03125-2.511719l6.757813-6.773438 34.996093 34.925782c-3.359374 28.878906-5.070312 57.925781-5.121093 87-.09375 92.285156 13.390625 177.253906 36.0625 227.285156 2.785156 6.042969 8.84375 9.90625 15.496093 9.878906l67.054688.0625c6.65625.027344 12.714844-3.820312 15.515625-9.859375 16.390625-35.976562 28.015625-90.101562 33.277344-152.003906l74.949219 74.949219c-3.378907 4.46875-4.335938 10.3125-2.558594 15.625l7.414062 20.839844c.859375 2.53125 2.289063 4.832031 4.183594 6.722656l38.980469 38.683594c3.199219 3.238281 7.570312 5.054687 12.125 5.042968 4.378906.039063 8.597656-1.644531 11.742187-4.695312l22.089844-19.8125c6.609375-6.59375 6.691406-17.273438.191406-23.972656zm-357.828125-299.214843-22.085937-22.074219 13.550781-13.550781 22.074219 22.085937zm59.730469 133.234375c0-9.15625.222656-18.324219.574219-27.480469 1.125-.035156 2.234375-.296875 3.257812-.765625l28.597656-14.3125 59.355469 59.359375-89.597656 47.4375c-1.460937-20.71875-2.1875-42.222656-2.1875-64.238281zm48.554687-50.613282 82.261719-41.128906c3.519531 28.171875 5.394531 56.53125 5.605469 84.921875l-28.832031 15.265625zm87.851563 63.148438c-.113281 8.105469-.332031 16.132812-.65625 24.078125l-15.523437-15.519531zm-110.804687-199.46875c15.164062-48.589844 32.75-70.773438 42.667968-70.773438 9.914063 0 27.613282 22.578126 43.007813 72.140626 7.511719 24.890624 13.195312 50.296874 17.003906 76.015624l-92.441406 46.222657-29.867188-29.804688c3.839844-31.773437 10.40625-63.15625 19.628907-93.800781zm-5.84375 131.652344-18.203126 9.105468c.527344-8.488281 1.199219-16.917968 2.011719-25.292968zm81.789062 275.441406-67.070312-.070312v.136718c-14.804688-32.675781-25.507813-81.347656-30.796876-137.523437.09375-.042969.1875-.058594.273438-.101563l100.4375-53.179687 30.054688 30.0625c-4.386719 65.953125-16 123.699219-32.898438 160.675781zm183.84375-.070312-39.082031-38.894532-7.375-20.769531 8.285156-8.535156 21.078125 7.390625 9.53125 9.984375-2.261719 2.261719c-2.519531 2.066406-3.644531 5.390624-2.894531 8.566406.75 3.171875 3.246094 5.640625 6.429688 6.359375 3.179687.714843 6.492187-.441407 8.53125-2.988281l1.980468-1.980469 17.921875 18.773437zm0 0"/><path d="m272.664062 435.203125c-4.714843 0-8.535156 3.820313-8.535156 8.53125v25.601563c0 4.710937 3.820313 8.53125 8.535156 8.53125 4.710938 0 8.53125-3.820313 8.53125-8.53125v-25.601563c0-4.710937-3.820312-8.53125-8.53125-8.53125zm0 0"/><path d="m238.53125 435.203125c-4.714844 0-8.535156 3.820313-8.535156 8.53125v25.601563c0 4.710937 3.820312 8.53125 8.535156 8.53125 4.710938 0 8.53125-3.820313 8.53125-8.53125v-25.601563c0-4.710937-3.820312-8.53125-8.53125-8.53125zm0 0"/><path d="m386.085938 475.308594 25.601562 25.601562c2.15625 2.15625 5.296875 3 8.242188 2.210938 2.945312-.789063 5.25-3.089844 6.039062-6.035156.789062-2.941407-.050781-6.085938-2.207031-8.242188l-24.113281-24.132812-7.554688-23.636719c-1.4375-4.488281-6.238281-6.964844-10.730469-5.527344-4.488281 1.4375-6.960937 6.242187-5.523437 10.730469l8.175781 25.601562c.414063 1.289063 1.121094 2.464844 2.070313 3.429688zm0 0"/></svg>